<svg xmlns="http://www.w3.org/2000/svg" version="1.1" width="128" height="128" viewBox="0 0 128 128">
<style>
    .color {
        fill: #2e3f81;
    }
</style>
<g transform="matrix(1.3524978751 0 0 1.3524978751 64 15.9759288991)" id="zPTvWeAwKGWElPV22wxIA"  >
<path class="color" d="M 0 -11.75947 C 6.49123 -11.75947 11.75947 -6.491230000000001 11.75947 0 C 11.75947 6.49123 6.491230000000001 11.75947 0 11.75947 C -6.49123 11.75947 -11.75947 6.491230000000001 -11.75947 0 C -11.75947 -6.49123 -6.491230000000001 -11.75947 0 -11.75947 z" stroke-linecap="round" />
</g>
<g class="color" transform="matrix(1.3524978751 0 0 1.3524978751 18.2860273819 110.1557745659)" id="8X_FmWei4k1PeQPh_vk5L"  >
<path class="color" d="M 0 -11.75947 C 6.49123 -11.75947 11.75947 -6.491230000000001 11.75947 0 C 11.75947 6.49123 6.491230000000001 11.75947 0 11.75947 C -6.49123 11.75947 -11.75947 6.491230000000001 -11.75947 0 C -11.75947 -6.49123 -6.491230000000001 -11.75947 0 -11.75947 z" stroke-linecap="round" />
</g>
<g transform="matrix(1.3524978751 0 0 1.3524978751 34.1906855698 62.7824506345)" id="KuvXE9oBv3kcYAx6qsCgI"  >
<path class="color" d="M 0 -11.75947 C 6.49123 -11.75947 11.75947 -6.491230000000001 11.75947 0 C 11.75947 6.49123 6.491230000000001 11.75947 0 11.75947 C -6.49123 11.75947 -11.75947 6.491230000000001 -11.75947 0 C -11.75947 -6.49123 -6.491230000000001 -11.75947 0 -11.75947 z" stroke-linecap="round" />
</g>
<g transform="matrix(0.1822252061 0.1138669465 -0.8953210037 1.4328131167 49.1921792188 38.0359687001)" id="8GvEcf49z6dHHJPjSzKSe"  >
<path class="color" d="M -8.62361 -8.62361 L 8.6236 -8.62361 L 8.6236 8.6236 L -8.62361 8.6236 z" stroke-linecap="round" />
</g>
<g transform="matrix(0.1760161373 -0.1232478262 0.9550469496 1.3639483975 81.9211813628 38.5489376491)" id="RdxJ6AdAptjSM-DWIaR3r"  >
<path class="color" transform=" translate(0.000005, 0.000005)" d="M -8.62361 -8.62361 L 8.6236 -8.62361 L 8.6236 8.6236 L -8.62361 8.6236 z" stroke-linecap="round" />
</g>
<g transform="matrix(0.2031692755 0.0699567917 -0.5670674324 1.6468834054 26.6387122134 85.562880245)" id="ok35PZCWXHcT_1EjCnJLz"  >
<path class="color" transform=" translate(0.000005, 0.000005)" d="M -8.62361 -8.62361 L 8.6236 -8.62361 L 8.6236 8.6236 L -8.62361 8.6236 z" stroke-linecap="round" />
</g>
<g transform="matrix(1.3524978751 0 0 1.3524978751 81.4802014073 110.2495422107)" id="uowLbd3BZ3DNeVQeqo7Ji"  >
<path class="color" d="M 0 -11.75947 C 6.49123 -11.75947 11.75947 -6.491230000000001 11.75947 0 C 11.75947 6.49123 6.491230000000001 11.75947 0 11.75947 C -6.49123 11.75947 -11.75947 6.491230000000001 -11.75947 0 C -11.75947 -6.49123 -6.491230000000001 -11.75947 0 -11.75947 z" stroke-linecap="round" />
</g>
<g transform="matrix(1.3524978751 0 0 1.3524978751 97.3848595951 62.8762182793)" id="ClkZCEH9IM0W9pbKksxb_"  >
<path class="color" d="M 0 -11.75947 C 6.49123 -11.75947 11.75947 -6.491230000000001 11.75947 0 C 11.75947 6.49123 6.491230000000001 11.75947 0 11.75947 C -6.49123 11.75947 -11.75947 6.491230000000001 -11.75947 0 C -11.75947 -6.49123 -6.491230000000001 -11.75947 0 -11.75947 z" stroke-linecap="round" />
</g>
<g transform="matrix(0.2031692755 0.0699567917 -0.5670674324 1.6468834054 89.8328862388 85.6566478898)" id="hq_ahOHIoxlGNxkywlKuR"  >
<path class="color" transform=" translate(0.000005, 0.000005)" d="M -8.62361 -8.62361 L 8.6236 -8.62361 L 8.6236 8.6236 L -8.62361 8.6236 z" stroke-linecap="round" />
</g>
</svg>